<?xml version="1.0" encoding="UTF-8"?>
<svg id="Capa_1" xmlns="http://www.w3.org/2000/svg" version="1.1" viewBox="0 0 1080 1080">
  <!-- Generator: Adobe Illustrator 29.3.1, SVG Export Plug-In . SVG Version: 2.1.0 Build 151)  -->
  <defs>
    <style>
      .st0 {
        fill: #00d0fe;
      }

      .st1 {
        fill: #fff;
      }
    </style>
  </defs>
  <g>
    <path class="st1" d="M233.4,766.7c-1.8-1-3.3-2.4-4.3-4.1-1-1.8-1.5-3.7-1.5-5.9s.5-4.1,1.5-5.9c1-1.8,2.5-3.1,4.3-4.1,1.8-1,3.9-1.5,6.2-1.5,3.9,0,6.9,1.2,9.1,3.7.1.1.2.3.2.5s0,.4-.3.6l-2.3,1.9c-.1.1-.3.2-.5.2s-.4-.1-.6-.3c-1.2-1.4-3.1-2.1-5.6-2.1s-2.6.3-3.8.9c-1.1.6-2,1.5-2.6,2.5-.6,1.1-1,2.3-1,3.6s.3,2.7,1,3.8c.7,1.1,1.6,2,2.8,2.6,1.2.6,2.5,1,4,1,2.3,0,4.1-.8,5.5-2.3v-2.9h-5.5c-.2,0-.4,0-.6-.2s-.2-.3-.2-.6v-2.3c0-.2,0-.4.2-.6.2-.1.3-.2.6-.2h8.6c.2,0,.4,0,.6.2.1.1.2.3.2.6v8.1c0,.2,0,.3-.2.5-1.5,1.3-3,2.3-4.5,2.9-1.5.6-3.3.9-5.2.9s-4.4-.5-6.2-1.5Z"/>
    <path class="st1" d="M256.7,767.8c-.2,0-.4,0-.6-.2s-.2-.3-.2-.6v-20.6c0-.2,0-.4.2-.6.2-.1.3-.2.6-.2h10.5c1.6,0,2.9.3,4.1,1,1.2.7,2.1,1.6,2.7,2.7.6,1.1.9,2.4.9,3.8s-.4,2.9-1.2,4.1c-.8,1.2-1.9,2.1-3.3,2.6l3.6,6.6c0,.1.1.3.1.5s0,.5-.3.7c-.2.2-.4.3-.7.3h-3.1c-.3,0-.5-.1-.6-.3l-3.9-6.9h-5v6.4c0,.2,0,.4-.2.6-.1.2-.3.2-.6.2h-3.1ZM266.8,756.3c1,0,1.9-.3,2.5-.9.6-.6.9-1.4.9-2.3s-.3-1.8-.9-2.4c-.6-.6-1.5-.9-2.5-.9h-6.2v6.5h6.2Z"/>
    <path class="st1" d="M286,767c-1.5-.8-2.7-1.9-3.6-3.4-.9-1.4-1.3-3.1-1.3-4.9v-12.3c0-.2,0-.4.2-.6.2-.1.3-.2.6-.2h3.1c.2,0,.4,0,.6.2.1.1.2.3.2.6v12.3c0,1.5.5,2.7,1.5,3.6s2.3,1.3,4,1.3,3.1-.4,4-1.3,1.5-2.1,1.5-3.6v-12.3c0-.2,0-.4.2-.6.2-.2.3-.2.6-.2h3.1c.2,0,.4,0,.6.2.1.1.2.3.2.6v12.3c0,1.8-.4,3.5-1.3,4.9-.9,1.4-2.1,2.6-3.6,3.4s-3.3,1.2-5.3,1.2-3.7-.4-5.3-1.2Z"/>
    <path class="st1" d="M309,767.8c-.2,0-.4,0-.6-.2s-.2-.3-.2-.6v-20.6c0-.2,0-.4.2-.6.2-.1.3-.2.6-.2h9.3c1.7,0,3.2.3,4.4,1,1.2.7,2.2,1.6,2.9,2.8.7,1.2,1,2.5,1,3.9s-.3,2.7-1,3.9c-.7,1.2-1.6,2.1-2.9,2.8-1.2.7-2.7,1-4.4,1h-5.5v5.8c0,.2,0,.4-.2.6s-.3.2-.6.2h-3.1ZM317.9,756.9c1.2,0,2.2-.3,2.9-1,.7-.6,1.1-1.5,1.1-2.6s-.4-1.9-1.1-2.5c-.7-.7-1.7-1-2.9-1h-5v7h5Z"/>
    <path class="st1" d="M337.4,766.7c-1.8-1-3.3-2.4-4.3-4.1-1-1.8-1.5-3.7-1.5-5.9s.5-4.1,1.5-5.9c1-1.8,2.5-3.1,4.3-4.1,1.8-1,3.9-1.5,6.2-1.5s4.4.5,6.2,1.5c1.8,1,3.2,2.4,4.3,4.1,1,1.8,1.5,3.7,1.5,5.9s-.5,4.1-1.5,5.9c-1,1.8-2.4,3.1-4.3,4.1-1.8,1-3.9,1.5-6.2,1.5s-4.4-.5-6.2-1.5ZM347.3,762.8c1.1-.6,2-1.5,2.6-2.5.6-1.1.9-2.3.9-3.6s-.3-2.5-.9-3.6c-.6-1.1-1.5-1.9-2.6-2.5-1.1-.6-2.3-.9-3.7-.9s-2.6.3-3.7.9c-1.1.6-2,1.5-2.6,2.5-.6,1.1-1,2.3-1,3.6s.3,2.5,1,3.6,1.5,1.9,2.6,2.5c1.1.6,2.3.9,3.7.9s2.6-.3,3.7-.9Z"/>
    <path class="st1" d="M376.4,767.8c-.2,0-.4,0-.6-.2s-.2-.3-.2-.6v-20.6c0-.2,0-.4.2-.6.2-.1.3-.2.6-.2h15.7c.2,0,.4,0,.6.2.1.1.2.3.2.6v2.6c0,.2,0,.4-.2.6s-.3.2-.6.2h-11.9v4.7h8.7c.2,0,.4,0,.6.2s.2.3.2.6v2.9c0,.2,0,.4-.2.6-.1.2-.3.2-.6.2h-8.8v4.7h11.8c.2,0,.4,0,.6.2s.2.3.2.6v2.6c0,.2,0,.4-.2.6s-.3.2-.6.2h-15.7Z"/>
    <path class="st1" d="M399.9,767.8c-.2,0-.4,0-.6-.2s-.2-.3-.2-.6v-20.6c0-.2,0-.4.2-.6.2-.1.3-.2.6-.2h3.5c.3,0,.5.1.6.3l8,13.9,8-13.9c.1-.2.3-.3.6-.3h3.5c.2,0,.4,0,.6.2.2.2.2.3.2.6v20.6c0,.2,0,.4-.2.6-.1.2-.3.2-.6.2h-3.1c-.2,0-.4,0-.6-.2s-.2-.3-.2-.6v-12.8l-6,10.3c-.1.2-.3.3-.6.3h-3.3c-.3,0-.5-.1-.6-.3l-6-10.3v12.8c0,.2,0,.4-.2.6s-.3.2-.6.2h-3.1Z"/>
    <path class="st1" d="M432.5,767.8c-.2,0-.4,0-.6-.2s-.2-.3-.2-.6v-20.6c0-.2,0-.4.2-.6.2-.1.3-.2.6-.2h9.3c1.7,0,3.2.3,4.4,1,1.2.7,2.2,1.6,2.9,2.8.7,1.2,1,2.5,1,3.9s-.3,2.7-1,3.9c-.7,1.2-1.6,2.1-2.9,2.8-1.2.7-2.7,1-4.4,1h-5.5v5.8c0,.2,0,.4-.2.6s-.3.2-.6.2h-3.1ZM441.4,756.9c1.2,0,2.2-.3,2.9-1,.7-.6,1.1-1.5,1.1-2.6s-.4-1.9-1.1-2.5c-.7-.7-1.7-1-2.9-1h-5v7h5Z"/>
    <path class="st1" d="M456.7,767.8c-.2,0-.4,0-.6-.2s-.2-.3-.2-.6v-20.6c0-.2,0-.4.2-.6.2-.1.3-.2.6-.2h10.5c1.6,0,2.9.3,4.1,1,1.2.7,2.1,1.6,2.7,2.7.6,1.1.9,2.4.9,3.8s-.4,2.9-1.2,4.1c-.8,1.2-1.9,2.1-3.3,2.6l3.6,6.6c0,.1.1.3.1.5s0,.5-.3.7c-.2.2-.4.3-.7.3h-3.1c-.3,0-.5-.1-.6-.3l-3.9-6.9h-5v6.4c0,.2,0,.4-.2.6-.1.2-.3.2-.6.2h-3.1ZM466.8,756.3c1,0,1.9-.3,2.5-.9.6-.6.9-1.4.9-2.3s-.3-1.8-.9-2.4c-.6-.6-1.5-.9-2.5-.9h-6.2v6.5h6.2Z"/>
    <path class="st1" d="M482.1,767.8c-.2,0-.4,0-.6-.2s-.2-.3-.2-.6v-20.6c0-.2,0-.4.2-.6.2-.1.3-.2.6-.2h15.7c.2,0,.4,0,.6.2.1.1.2.3.2.6v2.6c0,.2,0,.4-.2.6s-.3.2-.6.2h-11.9v4.7h8.7c.2,0,.4,0,.6.2s.2.3.2.6v2.9c0,.2,0,.4-.2.6-.1.2-.3.2-.6.2h-8.8v4.7h11.8c.2,0,.4,0,.6.2s.2.3.2.6v2.6c0,.2,0,.4-.2.6s-.3.2-.6.2h-15.7Z"/>
    <path class="st1" d="M503.8,764.8c-.1-.2-.2-.3-.2-.5,0-.3,0-.5.3-.6l2.2-1.8c.2-.1.3-.2.5-.2s.5,0,.7.3c1.3,1.5,3.1,2.3,5.4,2.3s2.5-.2,3.2-.7c.8-.4,1.2-1,1.2-1.7s-.2-1-.7-1.4c-.4-.4-1-.7-1.6-1s-1.6-.6-2.8-.9c-1.7-.5-3.1-1-4.1-1.5-1.1-.5-2-1.1-2.7-2-.8-.9-1.1-2-1.1-3.3s.4-2.4,1.1-3.4c.7-1,1.7-1.8,3-2.3,1.3-.5,2.8-.8,4.5-.8s3.4.3,4.7.9c1.3.6,2.4,1.4,3.1,2.4.1.1.2.3.2.4,0,.2-.1.4-.3.6l-2.2,1.7c-.1.1-.3.2-.5.2-.3,0-.5-.1-.8-.4-.4-.6-1.1-1-1.8-1.3-.8-.3-1.6-.5-2.5-.5s-2.1.3-2.8.8c-.7.5-1.1,1.1-1.1,1.9s.2.9.6,1.2c.4.3.9.6,1.5.8.6.2,1.5.5,2.6.8,1.7.5,3.2,1,4.3,1.5,1.1.5,2.1,1.2,2.9,2.1.8.9,1.2,2.1,1.2,3.5,0,2.1-.8,3.7-2.4,4.8-1.6,1.2-3.8,1.7-6.6,1.7s-6.8-1.1-8.9-3.4Z"/>
    <path class="st1" d="M527.4,767.8c-.3,0-.5,0-.7-.3-.2-.2-.3-.4-.3-.6s0-.3,0-.3l7.9-20.5c0-.1.1-.3.3-.3.1,0,.3-.1.4-.1h4.3c.1,0,.3,0,.4.1.1,0,.2.2.3.3l7.9,20.5c0,0,0,.2,0,.4,0,.3,0,.5-.3.6s-.4.3-.7.3h-3.3c-.1,0-.3,0-.4-.1-.1,0-.2-.2-.3-.3l-1.7-4.5h-8.4l-1.7,4.5c0,.1-.1.3-.3.3-.1,0-.3.1-.4.1h-3.2ZM537.2,751.7l-2.7,7h5.3l-2.7-7Z"/>
    <path class="st1" d="M554.6,767.8c-.2,0-.4,0-.6-.2s-.2-.3-.2-.6v-20.6c0-.2,0-.4.2-.6.2-.1.3-.2.6-.2h10.5c1.6,0,2.9.3,4.1,1,1.2.7,2.1,1.6,2.7,2.7.6,1.1.9,2.4.9,3.8s-.4,2.9-1.2,4.1c-.8,1.2-1.9,2.1-3.3,2.6l3.6,6.6c0,.1.1.3.1.5s0,.5-.3.7c-.2.2-.4.3-.7.3h-3.1c-.3,0-.5-.1-.6-.3l-3.9-6.9h-5v6.4c0,.2,0,.4-.2.6s-.3.2-.6.2h-3.1ZM564.6,756.3c1,0,1.9-.3,2.5-.9.6-.6.9-1.4.9-2.3s-.3-1.8-.9-2.4c-.6-.6-1.5-.9-2.5-.9h-6.2v6.5h6.2Z"/>
    <path class="st1" d="M580,767.8c-.2,0-.4,0-.6-.2s-.2-.3-.2-.6v-20.6c0-.2,0-.4.2-.6.2-.1.3-.2.6-.2h3.1c.2,0,.4,0,.6.2.1.1.2.3.2.6v20.6c0,.2,0,.4-.2.6s-.3.2-.6.2h-3.1Z"/>
    <path class="st1" d="M590.6,767.8c-.3,0-.5,0-.7-.3-.2-.2-.3-.4-.3-.6s0-.3,0-.3l7.9-20.5c0-.1.1-.3.3-.3.1,0,.3-.1.4-.1h4.3c.1,0,.3,0,.4.1.1,0,.2.2.3.3l7.9,20.5c0,0,0,.2,0,.4,0,.3,0,.5-.3.6s-.4.3-.7.3h-3.3c-.1,0-.3,0-.4-.1-.1,0-.2-.2-.3-.3l-1.7-4.5h-8.4l-1.7,4.5c0,.1-.1.3-.3.3-.1,0-.3.1-.4.1h-3.2ZM600.4,751.7l-2.7,7h5.3l-2.7-7Z"/>
    <path class="st1" d="M617.8,767.8c-.2,0-.4,0-.6-.2s-.2-.3-.2-.6v-20.6c0-.2,0-.4.2-.6.2-.1.3-.2.6-.2h3.1c.2,0,.4,0,.6.2.1.1.2.3.2.6v17.2h11.8c.2,0,.4,0,.6.2s.2.3.2.6v2.6c0,.2,0,.4-.2.6s-.3.2-.6.2h-15.7Z"/>
  </g>
  <path class="st0" d="M445.1,552.5c1.2,3.7,2.5,7.4,4,10.9.7,1.6-.8,3.3-2.5,2.8-7.1-2-14.6-3.1-22.4-3.1-23.9,0-45.4,10.1-60.5,26.3-1.1,1.2-3,.8-3.6-.7-2-5.6-3.8-11.4-5.4-17.3-30.6-114.3,37.5-232.3,151.8-262.9,66.8-17.9,138.6-2.3,192,41.6l-29.5,35.9c-14.9,18.2-39.9,24.7-61.7,16-24.2-9.6-51.2-11.4-76.9-4.5-66.9,17.9-106,88.2-85.2,154.9Z"/>
  <path class="st0" d="M761.1,573.5c-.3,1.3-1.6,2-2.8,1.5-8.9-3.3-18.4-5-28.4-5-30.2,0-56.6,16.2-71.1,40.4-.9,1.4-3,1.4-3.7-.2-1.5-3.2-3.2-6.2-5.2-9.2-.5-.8-.5-1.8.1-2.5,4.3-5.2,8-10.8,11.2-16.9,8.1-15.4,12.1-32.5,12-50.2l-81.9,22c-34.3,9.2-69.5-11.1-78.6-45.4l-7.2-27,218.3-58.5c8.1-2.2,16.6,2.3,19.4,10.2l9.3,26c13.7,38.4,16.6,77.8,8.8,114.9Z"/>
  <g>
    <path class="st1" d="M729.9,584.1c-37.9,0-68.7,30.8-68.7,68.7s30.8,68.7,68.7,68.7,19.9-2.3,28.7-6.3c-2.5,13.6-14.4,23.9-28.7,23.9s-13.4-2.5-18.5-6.7c-7.8-6.4-18.4-8.4-27.8-4.8l-17.9,6.8c10.1,26.5,35.9,44.3,64.3,44.3s68.7-30.8,68.7-68.7v-57.2c0-37.9-30.8-68.7-68.7-68.7M729.9,682c-16.1,0-29.1-13.1-29.1-29.1s13.1-29.2,29.1-29.2,29.1,13.1,29.1,29.2-13.1,29.1-29.1,29.1"/>
    <path class="st1" d="M579.6,577.2c-37.8.4-68.1,31.8-68.1,69.6v57c0,3.8,3.1,6.9,6.9,6.9h32.7v-64.8c0-15.9,12.8-28.9,28.6-29.1,16.3-.3,29.7,13.4,29.7,29.7v64.2h32.7c3.8,0,6.9-3.1,6.9-6.9v-57.8c0-38.1-31.2-69.1-69.4-68.7"/>
    <path class="st1" d="M492.8,646.6c0-.2,0-.4,0-.6,0-37.9-30.8-68.7-68.7-68.7s-68.7,30.8-68.7,68.7,30.8,68.7,68.7,68.7,26.4-4,37.1-10.9l1,7h29.1c5.6,0,9.8-4.9,9.1-10.4l-7.5-53.7ZM424.1,675.1c-16.1,0-29.1-13.1-29.1-29.1s13.1-29.2,29.1-29.2,29.2,13.1,29.2,29.2,0,.3,0,.4h0v.2c-.3,15.8-13.2,28.5-29.1,28.5"/>
    <path class="st1" d="M953.9,703l-7.5-53.7c0-.2,0-.4,0-.6,0-37.9-30.8-68.7-68.7-68.7s-68.7,30.8-68.7,68.7,30.8,68.7,68.7,68.7,26.4-4,37.1-10.9l1,7h29.1c5.6,0,9.8-4.9,9.1-10.4M877.6,677.8c-16.1,0-29.2-13.1-29.2-29.1s13.1-29.2,29.2-29.2,29.1,13.1,29.1,29.2,0,.3,0,.4h0v.2c-.3,15.8-13.2,28.5-29.1,28.5"/>
    <path class="st1" d="M336.3,567.5c-1.5-4.2-6-6.6-10.3-5.4l-116,31.1,3.8,14.3c4.9,18.2,23.6,29,41.8,24.1l43.5-11.7c0,9.4-2.1,18.5-6.4,26.7-7.1,13.5-19.6,23.4-35.3,27.7-33.6,9.3-69.1-9.9-79.5-43.2-11.1-35.5,9.7-72.8,45.2-82.3,13.6-3.7,28-2.7,40.8,2.4,11.6,4.6,24.9,1.1,32.8-8.5l15.7-19.1c-28.4-23.4-66.5-31.6-102-22.1-60.7,16.3-96.9,78.9-80.6,139.7,16.3,60.7,78.9,96.9,139.7,80.6,29.3-7.9,53-26.5,66.6-52.4,14-26.7,15.8-58,5.1-88.1l-4.9-13.8Z"/>
  </g>
</svg>