<?xml version="1.0" encoding="UTF-8"?>
<svg id="Capa_1" data-name="Capa 1" xmlns="http://www.w3.org/2000/svg" viewBox="0 0 1080 674.05">
  <defs>
    <style>
      .cls-1 {
        fill: #00d0fe;
      }

      .cls-2 {
        fill: #fff;
      }
    </style>
  </defs>
  <g>
    <path class="cls-2" d="M233.43,563.7c-1.84-1-3.27-2.38-4.3-4.14-1.03-1.75-1.54-3.71-1.54-5.87s.51-4.11,1.54-5.87c1.03-1.75,2.46-3.13,4.3-4.14,1.84-1,3.92-1.51,6.25-1.51,3.87,0,6.9,1.23,9.1,3.68.13.15.19.32.19.51,0,.21-.1.41-.29.6l-2.28,1.94c-.15.13-.33.19-.54.19-.23,0-.44-.11-.63-.32-1.25-1.4-3.1-2.09-5.55-2.09-1.4,0-2.65.31-3.76.92-1.11.61-1.98,1.45-2.62,2.52-.63,1.07-.95,2.26-.95,3.57,0,1.42.34,2.69,1.02,3.82.68,1.13,1.61,2.01,2.79,2.65,1.18.63,2.52.95,4,.95,2.3,0,4.14-.77,5.52-2.32v-2.89h-5.46c-.21,0-.4-.08-.56-.24s-.24-.34-.24-.56v-2.25c0-.23.08-.42.24-.57.16-.15.34-.22.56-.22h8.63c.23,0,.42.07.57.22.15.15.22.34.22.57v8.12c0,.19-.07.35-.22.48-1.48,1.33-2.98,2.29-4.49,2.87-1.51.58-3.26.87-5.25.87-2.33,0-4.41-.5-6.25-1.51Z"/>
    <path class="cls-2" d="M256.74,564.8c-.21,0-.4-.08-.56-.24s-.24-.34-.24-.56v-20.62c0-.23.08-.42.24-.57.16-.15.34-.22.56-.22h10.47c1.56,0,2.93.33,4.11,1,1.17.67,2.07,1.57,2.7,2.7.62,1.13.94,2.39.94,3.79,0,1.52-.39,2.89-1.17,4.09-.78,1.21-1.88,2.07-3.3,2.6l3.62,6.57c.08.15.13.32.13.51,0,.25-.09.48-.27.67-.18.19-.42.29-.71.29h-3.11c-.27,0-.48-.12-.6-.35l-3.9-6.88h-5.01v6.44c0,.21-.07.4-.22.56-.15.16-.34.24-.57.24h-3.08ZM266.8,553.31c1.04,0,1.87-.29,2.49-.87.62-.58.94-1.36.94-2.33s-.31-1.76-.94-2.36c-.62-.6-1.45-.9-2.49-.9h-6.19v6.47h6.19Z"/>
    <path class="cls-2" d="M286.05,564c-1.54-.8-2.75-1.93-3.62-3.38-.87-1.45-1.3-3.09-1.3-4.93v-12.31c0-.23.08-.42.24-.57.16-.15.34-.22.56-.22h3.08c.23,0,.42.07.57.22.15.15.22.34.22.57v12.34c0,1.52.5,2.73,1.49,3.63s2.34,1.35,4.03,1.35,3.06-.45,4.03-1.35,1.46-2.11,1.46-3.63v-12.31c0-.23.08-.43.24-.59.16-.16.34-.24.56-.24h3.11c.23,0,.42.07.57.22.15.15.22.34.22.57v12.31c0,1.84-.43,3.48-1.3,4.93-.87,1.45-2.07,2.57-3.62,3.38s-3.3,1.21-5.27,1.21-3.72-.4-5.27-1.21Z"/>
    <path class="cls-2" d="M308.98,564.8c-.21,0-.4-.08-.56-.24s-.24-.34-.24-.56v-20.62c0-.23.08-.42.24-.57.16-.15.34-.22.56-.22h9.33c1.69,0,3.16.34,4.41,1.03,1.25.69,2.2,1.62,2.85,2.81.66,1.18.98,2.5.98,3.93s-.33,2.72-.98,3.9c-.66,1.18-1.61,2.13-2.85,2.82-1.25.7-2.72,1.05-4.41,1.05h-5.46v5.84c0,.23-.08.43-.24.59s-.34.24-.56.24h-3.08ZM317.89,553.89c1.21,0,2.17-.32,2.9-.97.73-.64,1.09-1.5,1.09-2.55s-.36-1.88-1.09-2.54c-.73-.65-1.7-.98-2.9-.98h-5.04v7.04h5.04Z"/>
    <path class="cls-2" d="M337.39,563.7c-1.83-1-3.26-2.38-4.28-4.14-1.03-1.75-1.54-3.71-1.54-5.87s.51-4.11,1.54-5.87c1.03-1.75,2.45-3.13,4.28-4.14,1.83-1,3.9-1.51,6.2-1.51s4.37.5,6.19,1.51c1.82,1.01,3.24,2.38,4.27,4.14,1.03,1.76,1.54,3.71,1.54,5.87s-.51,4.11-1.54,5.87c-1.03,1.76-2.45,3.14-4.27,4.14-1.82,1-3.88,1.51-6.19,1.51s-4.37-.5-6.2-1.51ZM347.3,559.78c1.1-.61,1.96-1.45,2.59-2.52.62-1.07.94-2.26.94-3.57s-.31-2.5-.94-3.57c-.62-1.07-1.49-1.91-2.59-2.52-1.1-.61-2.34-.92-3.71-.92s-2.61.31-3.71.92c-1.1.61-1.97,1.45-2.6,2.52-.63,1.07-.95,2.26-.95,3.57s.32,2.5.95,3.57,1.5,1.91,2.6,2.52c1.1.61,2.34.92,3.71.92s2.61-.31,3.71-.92Z"/>
    <path class="cls-2" d="M376.35,564.8c-.23,0-.43-.08-.59-.24s-.24-.34-.24-.56v-20.62c0-.23.08-.42.24-.57.16-.15.34-.22.56-.22h15.73c.23,0,.42.07.57.22.15.15.22.34.22.57v2.57c0,.23-.08.43-.24.59s-.34.24-.56.24h-11.86v4.69h8.72c.23,0,.43.08.59.24s.24.34.24.56v2.85c0,.21-.07.4-.22.56-.15.16-.34.24-.57.24h-8.75v4.69h11.83c.23,0,.43.08.59.24s.24.34.24.55v2.57c0,.23-.08.43-.24.59s-.34.24-.56.24h-15.7Z"/>
    <path class="cls-2" d="M399.86,564.8c-.21,0-.4-.08-.56-.24s-.24-.34-.24-.56v-20.62c0-.23.08-.42.24-.57.16-.15.34-.22.56-.22h3.49c.27,0,.48.12.6.35l8.02,13.86,8.02-13.86c.13-.23.33-.35.6-.35h3.46c.23,0,.43.08.59.24.16.16.24.34.24.56v20.62c0,.21-.07.4-.22.56-.15.16-.34.24-.57.24h-3.08c-.21,0-.4-.08-.56-.24s-.24-.34-.24-.56v-12.81l-5.99,10.28c-.13.23-.33.35-.6.35h-3.33c-.27,0-.48-.12-.6-.35l-5.96-10.28v12.81c0,.21-.07.4-.22.56s-.34.24-.57.24h-3.08Z"/>
    <path class="cls-2" d="M432.46,564.8c-.21,0-.4-.08-.56-.24s-.24-.34-.24-.56v-20.62c0-.23.08-.42.24-.57.16-.15.34-.22.56-.22h9.33c1.69,0,3.16.34,4.41,1.03,1.25.69,2.2,1.62,2.86,2.81.65,1.18.98,2.5.98,3.93s-.33,2.72-.98,3.9c-.66,1.18-1.61,2.13-2.86,2.82-1.25.7-2.72,1.05-4.41,1.05h-5.46v5.84c0,.23-.08.43-.24.59s-.34.24-.56.24h-3.08ZM441.38,553.89c1.21,0,2.17-.32,2.9-.97.73-.64,1.09-1.5,1.09-2.55s-.37-1.88-1.09-2.54c-.73-.65-1.7-.98-2.9-.98h-5.04v7.04h5.04Z"/>
    <path class="cls-2" d="M456.7,564.8c-.21,0-.4-.08-.56-.24s-.24-.34-.24-.56v-20.62c0-.23.08-.42.24-.57.16-.15.34-.22.56-.22h10.47c1.56,0,2.93.33,4.11,1,1.17.67,2.07,1.57,2.7,2.7.62,1.13.94,2.39.94,3.79,0,1.52-.39,2.89-1.17,4.09-.78,1.21-1.88,2.07-3.3,2.6l3.62,6.57c.08.15.13.32.13.51,0,.25-.09.48-.27.67-.18.19-.42.29-.71.29h-3.11c-.27,0-.48-.12-.6-.35l-3.9-6.88h-5.01v6.44c0,.21-.07.4-.22.56-.15.16-.34.24-.57.24h-3.08ZM466.75,553.31c1.04,0,1.87-.29,2.49-.87.62-.58.94-1.36.94-2.33s-.31-1.76-.94-2.36c-.62-.6-1.45-.9-2.49-.9h-6.19v6.47h6.19Z"/>
    <path class="cls-2" d="M482.1,564.8c-.23,0-.43-.08-.59-.24s-.24-.34-.24-.56v-20.62c0-.23.08-.42.24-.57.16-.15.34-.22.56-.22h15.73c.23,0,.42.07.57.22.15.15.22.34.22.57v2.57c0,.23-.08.43-.24.59s-.34.24-.56.24h-11.86v4.69h8.72c.23,0,.43.08.59.24s.24.34.24.56v2.85c0,.21-.07.4-.22.56-.15.16-.34.24-.57.24h-8.75v4.69h11.83c.23,0,.43.08.59.24s.24.34.24.55v2.57c0,.23-.08.43-.24.59s-.34.24-.56.24h-15.7Z"/>
    <path class="cls-2" d="M503.8,561.78c-.13-.17-.19-.34-.19-.51,0-.25.1-.45.29-.6l2.16-1.84c.17-.13.35-.19.54-.19.25,0,.48.1.67.29,1.29,1.5,3.1,2.25,5.42,2.25,1.37,0,2.45-.22,3.24-.67.78-.44,1.17-1,1.17-1.68,0-.55-.22-1.02-.67-1.41-.44-.39-.99-.71-1.65-.97s-1.59-.56-2.79-.92c-1.69-.51-3.07-.99-4.14-1.46-1.07-.46-1.98-1.13-2.74-1.98-.76-.86-1.14-1.96-1.14-3.31s.36-2.44,1.08-3.44c.72-1,1.73-1.78,3.05-2.33,1.31-.55,2.81-.82,4.5-.82,1.8,0,3.37.29,4.71.86,1.34.57,2.38,1.36,3.12,2.38.11.15.16.29.16.41,0,.23-.11.43-.32.6l-2.19,1.74c-.15.13-.32.19-.51.19-.27,0-.53-.15-.76-.44-.44-.57-1.06-1.02-1.84-1.35-.78-.33-1.63-.49-2.54-.49-1.14,0-2.07.25-2.78.76-.71.51-1.06,1.13-1.06,1.87,0,.47.2.86.6,1.17.4.32.9.59,1.49.81.59.22,1.46.5,2.6.84,1.73.49,3.17.97,4.3,1.46,1.13.49,2.1,1.19,2.92,2.11.81.92,1.22,2.1,1.22,3.54,0,2.07-.79,3.69-2.38,4.84-1.59,1.15-3.8,1.73-6.63,1.73-3.83,0-6.8-1.14-8.91-3.43Z"/>
    <path class="cls-2" d="M527.37,564.8c-.27,0-.5-.09-.68-.27-.18-.18-.27-.4-.27-.65,0-.15.02-.26.06-.35l7.93-20.46c.04-.15.13-.26.27-.35.14-.08.28-.13.43-.13h4.28c.15,0,.29.04.43.13.14.08.23.2.27.35l7.9,20.46c.04.08.06.21.06.38,0,.25-.08.47-.25.63s-.39.25-.67.25h-3.3c-.15,0-.29-.04-.43-.13-.14-.08-.23-.2-.27-.35l-1.71-4.47h-8.41l-1.71,4.47c-.04.15-.13.26-.27.35-.14.08-.28.13-.43.13h-3.24ZM537.23,548.72l-2.66,7.01h5.33l-2.66-7.01Z"/>
    <path class="cls-2" d="M554.58,564.8c-.21,0-.4-.08-.56-.24s-.24-.34-.24-.56v-20.62c0-.23.08-.42.24-.57.16-.15.34-.22.56-.22h10.47c1.56,0,2.93.33,4.11,1,1.17.67,2.07,1.57,2.7,2.7.62,1.13.94,2.39.94,3.79,0,1.52-.39,2.89-1.17,4.09-.78,1.21-1.88,2.07-3.3,2.6l3.62,6.57c.08.15.13.32.13.51,0,.25-.09.48-.27.67-.18.19-.42.29-.71.29h-3.11c-.28,0-.48-.12-.6-.35l-3.9-6.88h-5.01v6.44c0,.21-.07.4-.22.56s-.34.24-.57.24h-3.08ZM564.64,553.31c1.04,0,1.87-.29,2.49-.87.62-.58.94-1.36.94-2.33s-.31-1.76-.94-2.36c-.62-.6-1.45-.9-2.49-.9h-6.18v6.47h6.18Z"/>
    <path class="cls-2" d="M579.96,564.8c-.21,0-.4-.08-.56-.24s-.24-.34-.24-.56v-20.62c0-.23.08-.42.24-.57.16-.15.34-.22.56-.22h3.08c.23,0,.42.07.57.22.15.15.22.34.22.57v20.62c0,.21-.07.4-.22.56s-.34.24-.57.24h-3.08Z"/>
    <path class="cls-2" d="M590.55,564.8c-.27,0-.5-.09-.68-.27-.18-.18-.27-.4-.27-.65,0-.15.02-.26.06-.35l7.93-20.46c.04-.15.13-.26.27-.35.14-.08.28-.13.43-.13h4.28c.15,0,.29.04.43.13.14.08.23.2.27.35l7.9,20.46c.04.08.06.21.06.38,0,.25-.08.47-.25.63s-.39.25-.67.25h-3.3c-.15,0-.29-.04-.43-.13-.14-.08-.23-.2-.27-.35l-1.71-4.47h-8.41l-1.71,4.47c-.04.15-.13.26-.27.35-.14.08-.28.13-.43.13h-3.24ZM600.42,548.72l-2.66,7.01h5.33l-2.66-7.01Z"/>
    <path class="cls-2" d="M617.8,564.8c-.23,0-.43-.08-.59-.24s-.24-.34-.24-.56v-20.62c0-.23.08-.42.24-.57.16-.15.34-.22.56-.22h3.08c.23,0,.42.07.57.22.15.15.22.34.22.57v17.22h11.83c.23,0,.43.08.59.24s.24.34.24.55v2.57c0,.23-.08.43-.24.59s-.34.24-.55.24h-15.7Z"/>
  </g>
  <path class="cls-1" d="M445.08,349.48c1.16,3.73,2.49,7.36,3.98,10.89.69,1.63-.83,3.33-2.53,2.85-7.13-2.01-14.64-3.08-22.41-3.08-23.85,0-45.38,10.13-60.51,26.32-1.09,1.17-3.02.78-3.56-.73-2.03-5.65-3.85-11.43-5.43-17.33-30.63-114.33,37.45-232.27,151.78-262.9,66.78-17.89,138.57-2.33,192.02,41.63l-29.53,35.91c-14.93,18.16-39.88,24.66-61.75,16-24.22-9.59-51.2-11.39-76.89-4.5-66.88,17.92-106.03,88.2-85.18,154.94Z"/>
  <path class="cls-1" d="M761.13,370.52c-.26,1.26-1.59,1.99-2.8,1.55-8.87-3.25-18.45-5.03-28.43-5.03-30.18,0-56.65,16.23-71.13,40.41-.86,1.44-2.99,1.35-3.72-.16-1.52-3.17-3.24-6.25-5.17-9.22-.51-.78-.45-1.79.14-2.52,4.25-5.2,7.99-10.84,11.15-16.87,8.05-15.37,12.06-32.47,11.97-50.19l-81.94,21.96c-34.25,9.18-69.47-11.15-78.65-45.41l-7.24-27,218.33-58.51c8.13-2.18,16.57,2.25,19.41,10.17l9.28,25.96c13.72,38.35,16.58,77.76,8.79,114.86Z"/>
  <g>
    <path class="cls-2" d="M729.9,381.14c-37.9,0-68.73,30.83-68.73,68.73s30.83,68.73,68.73,68.73c10.23,0,19.94-2.26,28.67-6.29-2.47,13.59-14.38,23.93-28.67,23.93-6.87,0-13.4-2.47-18.52-6.68-7.82-6.43-18.36-8.45-27.83-4.85l-17.9,6.81c10.08,26.49,35.9,44.3,64.25,44.3,37.9,0,68.73-30.83,68.73-68.73v-57.22c0-37.9-30.83-68.73-68.73-68.73M729.9,479.02c-16.07,0-29.15-13.08-29.15-29.15s13.08-29.15,29.15-29.15,29.15,13.08,29.15,29.15-13.08,29.15-29.15,29.15"/>
    <path class="cls-2" d="M579.59,374.24c-37.84.37-68.05,31.76-68.05,69.6v56.96c0,3.83,3.1,6.93,6.93,6.93h32.65v-64.77c0-15.9,12.8-28.87,28.65-29.15,16.31-.28,29.65,13.42,29.65,29.73v64.19h32.65c3.83,0,6.93-3.1,6.93-6.93v-57.84c0-38.12-31.2-69.1-69.41-68.73"/>
    <path class="cls-2" d="M492.82,443.59c0-.21.02-.42.02-.63,0-37.9-30.83-68.73-68.73-68.73s-68.73,30.83-68.73,68.73,30.83,68.73,68.73,68.73c13.67,0,26.41-4.03,37.12-10.93l.97,6.97h29.07c5.56,0,9.83-4.91,9.06-10.41l-7.51-53.73ZM424.11,472.11c-16.07,0-29.15-13.08-29.15-29.15s13.08-29.15,29.15-29.15,29.15,13.08,29.15,29.15c0,.13-.01.25-.01.38h-.04l.03.25c-.33,15.78-13.27,28.52-29.13,28.52"/>
    <path class="cls-2" d="M953.85,500.02l-7.51-53.73c0-.21.02-.42.02-.63,0-37.9-30.83-68.73-68.73-68.73s-68.73,30.83-68.73,68.73,30.83,68.73,68.73,68.73c13.67,0,26.41-4.03,37.12-10.93l.97,6.97h29.07c5.56,0,9.83-4.91,9.06-10.41M877.63,474.81c-16.07,0-29.15-13.08-29.15-29.15s13.08-29.15,29.15-29.15,29.15,13.08,29.15,29.15c0,.13,0,.25,0,.38h-.04l.03.25c-.33,15.78-13.27,28.52-29.13,28.52"/>
    <path class="cls-2" d="M336.3,364.48c-1.51-4.21-5.99-6.56-10.31-5.4l-115.98,31.08,3.84,14.34c4.88,18.2,23.58,29,41.78,24.12l43.52-11.66c.05,9.42-2.08,18.5-6.36,26.66-7.09,13.54-19.62,23.36-35.31,27.72-33.63,9.33-69.07-9.92-79.48-43.24-11.08-35.45,9.72-72.79,45.24-82.3,13.65-3.66,27.98-2.7,40.85,2.39,11.61,4.6,24.87,1.15,32.8-8.5l15.68-19.07c-28.39-23.35-66.53-31.62-102-22.11-60.73,16.27-96.9,78.92-80.63,139.65,16.27,60.73,78.92,96.9,139.65,80.63,29.32-7.86,52.95-26.48,66.56-52.43,14.02-26.74,15.82-58.02,5.06-88.08l-4.93-13.79Z"/>
  </g>
</svg>